P3
# CREATOR: GIMP PNM Filter Version 1.1
16 16
255
0
0
0
0
0
0
0
0
0
0
0
0
0
0
0
0
0
0
0
0
0
0
0
0
0
0
0
0
0
0
0
0
0
0
0
0
0
0
0
0
0
0
0
0
0
0
0
0
0
0
0
0
0
0
0
0
0
0
0
0
0
0
0
0
0
0
0
0
0
0
0
0
0
0
0
0
0
0
0
0
0
0
0
0
0
0
0
0
0
0
0
0
0
0
0
0
0
0
0
0
0
0
0
0
0
0
0
0
0
0
0
0
0
0
0
0
0
0
0
0
0
0
0
0
0
0
0
0
0
0
0
0
0
0
0
0
0
0
0
0
0
0
0
0
0
0
0
0
0
0
0
0
0
0
0
0
255
255
174
255
255
174
241
224
0
241
224
0
0
0
0
0
0
0
0
0
0
0
0
0
0
0
0
0
0
0
0
0
0
0
0
0
0
0
0
0
0
0
0
0
0
255
255
174
255
255
174
255
255
174
255
255
174
241
224
0
241
224
0
0
0
0
0
0
0
0
0
0
0
0
0
0
0
0
0
0
0
0
0
0
0
0
0
0
0
0
255
255
174
255
255
174
255
255
174
255
255
174
255
255
174
241
224
0
241
224
0
241
224
0
0
0
0
0
0
0
0
0
0
0
0
0
0
0
0
0
0
0
0
0
0
0
0
0
241
157
0
241
157
0
255
255
174
255
255
174
241
157
0
241
157
0
241
157
0
241
224
0
0
0
0
0
0
0
0
0
0
0
0
0
0
0
0
0
0
0
0
0
0
0
0
0
255
255
174
255
255
174
255
255
174
255
255
174
255
255
174
241
224
0
241
224
0
241
224
0
0
0
0
0
0
0
0
0
0
0
0
0
0
0
0
0
0
0
0
0
0
255
255
174
255
255
174
255
255
174
241
157
0
255
255
174
255
255
174
255
255
174
241
224
0
241
224
0
0
0
0
0
0
0
0
0
0
0
0
0
0
0
0
0
0
0
0
0
0
255
255
174
255
255
174
255
255
174
241
157
0
255
255
174
255
255
174
255
255
174
241
224
0
241
224
0
0
0
0
0
0
0
0
0
0
0
0
0
0
0
0
0
0
0
0
0
0
255
255
174
255
255
174
241
157
0
255
255
174
255
255
174
255
255
174
255
255
174
241
224
0
241
224
0
0
0
0
0
0
0
0
0
0
0
0
0
0
0
0
0
0
0
0
0
0
255
255
174
255
255
174
241
157
0
255
255
174
255
255
174
255
255
174
241
224
0
241
224
0
241
224
0
224
157
0
0
0
0
0
0
0
0
0
0
0
0
0
0
0
0
224
157
0
255
255
174
255
255
174
255
255
174
255
255
174
255
255
174
255
255
174
241
224
0
241
224
0
224
157
0
224
157
0
0
0
0
0
0
0
0
0
0
0
0
0
0
0
0
224
157
0
224
157
0
255
255
174
255
255
174
255
255
174
255
255
174
241
224
0
241
224
0
241
224
0
224
157
0
224
157
0
0
0
0
0
0
0
0
0
0
0
0
0
0
0
0
224
157
0
224
157
0
255
255
174
255
255
174
255
255
174
255
255
174
241
224
0
241
224
0
224
157
0
224
157
0
224
157
0
0
0
0
0
0
0
0
0
0
0
0
0
0
0
0
224
157
0
224
157
0
224
157
0
255
255
174
255
255
174
241
224
0
241
224
0
224
157
0
224
157
0
224
157
0
224
157
0
0
0
0
0
0
0
0
0
0
0
0
0
0
0
0
