P3
# CREATOR: GIMP PNM Filter Version 1.1
2 2
255
224
224
0
224
224
0
224
98
0
224
98
0
