P3
# CREATOR: GIMP PNM Filter Version 1.1
16 16
255
210
157
112
210
157
112
210
157
112
210
157
112
210
157
112
210
157
112
210
157
112
210
157
112
210
157
112
210
157
112
210
157
112
210
157
112
210
157
112
210
157
112
188
112
98
188
112
98
210
157
112
210
157
112
210
157
112
210
157
112
210
157
112
210
157
112
210
157
112
210
157
112
210
157
112
210
157
112
210
157
112
210
157
112
210
157
112
210
157
112
188
112
98
188
112
98
210
157
112
210
157
112
210
157
112
210
157
112
210
157
112
210
157
112
210
157
112
210
157
112
210
157
112
210
157
112
210
157
112
210
157
112
210
157
112
210
157
112
188
112
98
188
112
98
210
157
112
210
157
112
210
157
112
210
157
112
210
157
112
210
157
112
210
157
112
210
157
112
210
157
112
210
157
112
210
157
112
210
157
112
210
157
112
210
157
112
188
112
98
188
112
98
210
157
112
210
157
112
210
157
112
210
157
112
210
157
112
210
157
112
210
157
112
210
157
112
210
157
112
210
157
112
210
157
112
210
157
112
210
157
112
210
157
112
188
112
98
188
112
98
210
157
112
210
157
112
210
157
112
210
157
112
210
157
112
210
157
112
210
157
112
210
157
112
210
157
112
210
157
112
210
157
112
210
157
112
210
157
112
210
157
112
188
112
98
188
112
98
188
112
98
188
112
98
188
112
98
188
112
98
188
112
98
188
112
98
188
112
98
188
112
98
188
112
98
188
112
98
188
112
98
188
112
98
188
112
98
188
112
98
188
112
98
188
112
98
188
112
98
188
112
98
188
112
98
188
112
98
188
112
98
188
112
98
188
112
98
188
112
98
188
112
98
188
112
98
188
112
98
188
112
98
188
112
98
188
112
98
188
112
98
188
112
98
210
157
112
210
157
112
210
157
112
210
157
112
210
157
112
210
157
112
188
112
98
188
112
98
210
157
112
210
157
112
210
157
112
210
157
112
210
157
112
210
157
112
210
157
112
210
157
112
210
157
112
210
157
112
210
157
112
210
157
112
210
157
112
210
157
112
188
112
98
188
112
98
210
157
112
210
157
112
210
157
112
210
157
112
210
157
112
210
157
112
210
157
112
210
157
112
210
157
112
210
157
112
210
157
112
210
157
112
210
157
112
210
157
112
188
112
98
188
112
98
210
157
112
210
157
112
210
157
112
210
157
112
210
157
112
210
157
112
210
157
112
210
157
112
210
157
112
210
157
112
210
157
112
210
157
112
210
157
112
210
157
112
188
112
98
188
112
98
210
157
112
210
157
112
210
157
112
210
157
112
210
157
112
210
157
112
210
157
112
210
157
112
210
157
112
210
157
112
210
157
112
210
157
112
210
157
112
210
157
112
188
112
98
188
112
98
210
157
112
210
157
112
210
157
112
210
157
112
210
157
112
210
157
112
210
157
112
210
157
112
210
157
112
210
157
112
210
157
112
210
157
112
210
157
112
210
157
112
188
112
98
188
112
98
210
157
112
210
157
112
210
157
112
210
157
112
210
157
112
210
157
112
210
157
112
210
157
112
188
112
98
188
112
98
188
112
98
188
112
98
188
112
98
188
112
98
188
112
98
188
112
98
188
112
98
188
112
98
188
112
98
188
112
98
188
112
98
188
112
98
188
112
98
188
112
98
188
112
98
188
112
98
188
112
98
188
112
98
188
112
98
188
112
98
188
112
98
188
112
98
188
112
98
188
112
98
188
112
98
188
112
98
188
112
98
188
112
98
188
112
98
188
112
98
