P3
# CREATOR: GIMP PNM Filter Version 1.1
8 8
255
210
112
143
210
112
143
210
112
143
210
112
143
210
112
143
210
112
143
210
112
143
241
174
157
210
112
143
210
112
143
210
112
143
210
112
143
210
112
143
210
112
143
210
112
143
241
174
157
210
112
143
210
112
143
210
112
143
210
112
143
210
112
143
210
112
143
210
112
143
241
174
157
241
174
157
241
174
157
241
174
157
241
174
157
241
174
157
241
174
157
241
174
157
241
174
157
210
112
143
210
112
143
210
112
143
241
174
157
210
112
143
210
112
143
210
112
143
210
112
143
210
112
143
210
112
143
210
112
143
241
174
157
210
112
143
210
112
143
210
112
143
210
112
143
210
112
143
210
112
143
210
112
143
241
174
157
210
112
143
210
112
143
210
112
143
210
112
143
241
174
157
241
174
157
241
174
157
241
174
157
241
174
157
241
174
157
241
174
157
241
174
157
